<?xml version="1.0" standalone="no"?>
<!DOCTYPE svg PUBLIC "-//W3C//DTD SVG 20010904//EN"
 "http://www.w3.org/TR/2001/REC-SVG-20010904/DTD/svg10.dtd">
<svg version="1.0" xmlns="http://www.w3.org/2000/svg"
 width="1024.000000pt" height="1024.000000pt" viewBox="0 0 1024.000000 1024.000000"
 preserveAspectRatio="xMidYMid meet">
<metadata>
Created by potrace 1.11, written by Peter Selinger 2001-2013
</metadata>
<g transform="translate(0.000000,1024.000000) scale(0.100000,-0.100000)"
fill="#000000" stroke="none">
<path d="M7378 9215 c-2 -1 -39 -5 -83 -8 -100 -8 -133 -13 -220 -39 -260 -75
-483 -227 -660 -448 -89 -111 -154 -228 -199 -356 -58 -166 -68 -246 -71 -540
l-2 -222 -34 -29 c-19 -16 -46 -38 -60 -49 -29 -21 -285 -221 -309 -241 -22
-18 -172 -137 -269 -213 -46 -36 -181 -142 -300 -236 -119 -94 -378 -298 -576
-454 -198 -156 -400 -316 -450 -355 -215 -170 -471 -372 -496 -390 -36 -27
-393 -308 -399 -315 -3 -3 -23 -19 -45 -35 -47 -35 -51 -38 -130 -102 -33 -27
-134 -107 -225 -178 -91 -71 -208 -163 -261 -205 -52 -41 -111 -87 -130 -102
-19 -15 -155 -123 -304 -240 -148 -117 -287 -227 -309 -243 -41 -32 -108 -86
-140 -112 -11 -9 -38 -30 -60 -47 -23 -17 -229 -180 -459 -361 -230 -182 -444
-350 -476 -375 -240 -186 -561 -444 -587 -471 -81 -89 -118 -184 -118 -308 0
-141 21 -210 94 -307 74 -99 245 -185 369 -186 129 -1 153 9 816 342 347 175
793 399 993 500 l363 182 775 0 c426 1 776 -1 777 -3 2 -2 20 -49 39 -104 20
-55 93 -255 163 -445 70 -190 144 -392 165 -450 42 -117 156 -429 261 -712 38
-103 69 -191 69 -195 0 -5 14 -30 30 -57 56 -88 149 -103 285 -46 11 4 90 34
175 65 171 64 209 84 233 128 35 60 27 90 -172 635 -232 636 -276 755 -313
857 -17 44 -47 127 -68 185 -21 58 -41 113 -45 123 -6 14 -2 17 21 18 37 0
665 0 681 0 11 -1 24 -33 98 -236 20 -55 55 -149 77 -210 22 -60 43 -119 48
-130 5 -11 72 -195 150 -410 78 -214 147 -406 155 -425 18 -46 73 -196 125
-340 23 -63 45 -124 50 -135 4 -11 13 -34 20 -51 27 -73 97 -116 176 -108 66
7 426 139 485 179 77 50 83 115 28 268 -17 45 -48 129 -69 187 -21 58 -45 123
-53 145 -9 22 -43 117 -77 210 -34 94 -77 211 -95 260 -19 50 -59 160 -89 245
-31 85 -60 164 -65 175 -5 11 -23 58 -39 105 -17 47 -56 154 -87 238 -31 84
-55 156 -52 158 3 3 60 25 128 48 166 58 213 77 354 146 330 159 572 333 838
603 452 459 754 1051 842 1652 3 22 7 54 10 70 23 148 28 293 29 1007 0 383 3
698 6 701 3 3 28 7 55 11 28 3 75 10 105 16 30 6 66 12 80 15 45 7 284 46 310
50 14 3 133 23 265 45 132 22 251 43 265 45 14 2 66 11 115 19 50 9 108 18
130 21 22 4 47 8 55 10 8 2 35 7 60 11 25 3 52 8 60 9 8 2 18 4 22 4 7 1 2 91
-8 146 -19 104 -94 262 -161 341 -184 218 -488 395 -816 473 -199 48 -333 62
-629 63 l-174 2 -34 44 c-57 71 -194 196 -283 255 -205 138 -400 199 -674 211
-40 1 -74 2 -75 1z m172 -916 c84 -30 175 -109 214 -188 114 -226 -20 -505
-264 -549 -153 -28 -291 23 -380 142 -57 76 -78 144 -75 247 1 68 7 95 29 142
49 102 150 189 249 212 61 15 177 12 227 -6z"/>
</g>
</svg>
